<?xml version="1.0" encoding="UTF-8"?>
<svg id="Layer_2" data-name="Layer 2" xmlns="http://www.w3.org/2000/svg" viewBox="0 0 927.04 232.97">
  <defs>
    <style>
      .cls-1 {
        fill: #b6da08;
      }
    </style>
  </defs>
  <g id="Layer_1-2" data-name="Layer 1">
    <g>
      <g>
        <path class="cls-1" d="m282.3,49.25h65.03c30.68,0,49.21,14.09,49.21,40.14,0,18.33-10.81,29.91-27.98,33.77v.39c34.54,5.98,22,59.44,29.91,61.75v1.93h-36.09c-6.75-5.79,5.79-48.05-23.74-48.05h-21.61v48.05h-34.74V49.25Zm34.74,61.56h23.54c13.89,0,21.23-5.02,21.23-16.6s-7.33-16.6-21.23-16.6h-23.54v33.19Z"/>
        <path class="cls-1" d="m474.12,157.32h30.68c-5.4,19.88-20.84,33-47.67,33-32.81,0-52.68-21.61-52.68-52.49s19.49-52.49,50.95-52.49c33.77,0,50.95,24.7,50.95,60.6h-71.02c0,13.89,10.23,21.23,21.23,21.23s15.63-5.02,17.56-9.84Zm-38.79-30.11h40.14c0-13.7-8.3-20.65-20.07-20.65s-20.07,6.95-20.07,20.65Z"/>
        <path class="cls-1" d="m612.68,120.46v66.77h-30.88v-56.93c0-14.86-5.21-19.88-15.44-19.88-11.77,0-18.53,5.98-18.53,19.68v57.12h-30.88v-98.8h30.88v14.28h.39c5.21-9.07,14.86-17.37,32.42-17.37,19.1,0,32.03,12.54,32.03,35.12Z"/>
        <path class="cls-1" d="m675.39,190.32c-33,0-52.88-21.81-52.88-52.49s19.88-52.49,52.88-52.49,52.68,21.81,52.68,52.49-19.88,52.49-52.68,52.49Zm0-23.16c13.51,0,21.81-10.23,21.81-29.33s-8.3-29.33-21.81-29.33-22,10.23-22,29.33,8.3,29.33,22,29.33Z"/>
        <path class="cls-1" d="m757.6,88.43l20.07,64.46h.39l20.07-64.46h30.88l-34.16,98.8h-33.96l-34.16-98.8h30.88Z"/>
        <path class="cls-1" d="m877.83,106.57c-11.19,0-16.6,4.25-17.56,13.7h-28.95c.96-18.91,14.47-34.93,46.7-34.93,27.79,0,43.23,10.81,43.23,41.88v45.35c0,5.21,1.93,7.33,5.79,7.33v7.33c-6.18,2.32-11.77,3.09-17.95,3.09-13.89,0-17.75-6.56-17.75-13.51h-.39c-6.37,7.33-17.95,13.51-31.07,13.51-20.84,0-32.42-11.77-32.42-28.37,0-19.68,14.47-28.75,37.63-33.38,12.74-2.51,25.28-4.44,25.28-12.74,0-5.79-4.05-9.26-12.54-9.26Zm12.54,44.58v-11.96c-3.86,1.54-8.68,2.89-15.82,4.44-12.16,2.7-16.21,7.72-16.21,13.89,0,8.11,4.82,11.58,12.35,11.58,13.32,0,19.68-8.49,19.68-17.95Z"/>
      </g>
      <g>
        <polygon class="cls-1" points="123.8 202.58 85.28 224.94 85.28 232.97 176.16 232.97 123.8 202.58"/>
        <path class="cls-1" d="m43.92,201.12l110.51-64.15v-23.84l-69.15-40.15v50.72l32.78,19.03-74.14,43.04V40.97h68.59l77.85,45.19v77.78l-25.37,14.73,63.32,36.76c2.96-5.14,4.66-11.09,4.66-17.45V35c0-19.33-15.67-35-35-35H35C15.67,0,0,15.67,0,35v162.98c0,19.33,15.67,35,35,35h8.92v-31.85Z"/>
      </g>
    </g>
  </g>
</svg>